<svg id="SvgjsSvg1054" width="288" height="288" xmlns="http://www.w3.org/2000/svg" version="1.1" xmlns:xlink="http://www.w3.org/1999/xlink" xmlns:svgjs="http://svgjs.com/svgjs"><defs id="SvgjsDefs1055"></defs><g id="SvgjsG1056"><svg xmlns="http://www.w3.org/2000/svg" data-name="Layer 1" viewBox="0 0 512 512" width="288" height="288"><path d="M116.569,300.229h178.38v76.924a7,7,0,0,0,7,7h81.52a7,7,0,0,0,7-7V300.229H426a7,7,0,0,0,7-7V83.735a7,7,0,0,0-6.962-7l-159.62-.858V18.418a7,7,0,0,0-7-7H197.393a7,7,0,0,0-7,7V75.347l-30.3-.313V32.343a7,7,0,0,0-7-7h-36.52A37.612,37.612,0,0,0,79.041,61.276a7.409,7.409,0,0,0-.041.75V262.659A37.613,37.613,0,0,0,116.569,300.229Zm192.38,69.924V150.292h67.52v22.076H356a7,7,0,0,0,0,14h20.469v26.759H356a7,7,0,0,0,0,14h20.469v26.316H356a7,7,0,0,0,0,14h20.469v26.316H356a7,7,0,0,0,0,14h20.469v62.393h-67.52ZM204.393,61.938h48.025V184.509L228.405,224.3l-24.013-39.792V61.938Zm48.025-36.52V47.937H204.393V25.418Zm-62.025,63.93v97.109a7,7,0,0,0,1.007,3.617l31.013,51.393a7,7,0,0,0,11.986,0l31.013-51.393a7,7,0,0,0,1.007-3.617V89.877L419,90.7V286.229H390.469V143.292a7,7,0,0,0-7-7h-81.52a7,7,0,0,0-7,7V286.229H116.569A23.6,23.6,0,0,1,93,262.659V246.71a23.6,23.6,0,0,1,23.569-23.57h36.52a7,7,0,0,0,7-7V89.035Zm-73.824-50h29.52v169.8h-29.52A37.376,37.376,0,0,0,93,217.483V62.913A23.6,23.6,0,0,1,116.569,39.343Z" fill="#ffdb6e" class="color000 svgShape"></path><path d="M342.709 314.33a21.621 21.621 0 1 0 21.62 21.62A21.645 21.645 0 0 0 342.709 314.33zm0 29.241a7.621 7.621 0 1 1 7.62-7.621A7.628 7.628 0 0 1 342.709 343.571zM267.7 421.14a7 7 0 0 0-9.9 0l-7.516 7.515-7.515-7.515a7 7 0 0 0-9.9 9.9l7.516 7.516-7.516 7.516a7 7 0 0 0 9.9 9.9l7.515-7.515 7.516 7.515a7 7 0 0 0 9.9-9.9l-7.516-7.516 7.516-7.516A7 7 0 0 0 267.7 421.14zM86.933 421.024L65.07 441.05l-9.533-10.337a7 7 0 1 0-10.291 9.492l14.263 15.466a7 7 0 0 0 9.874.416L96.39 431.349a7 7 0 0 0-9.457-10.325z" fill="#ffdb6e" class="color000 svgShape"></path><path d="M440.974,376.528a62.126,62.126,0,0,0-60.845,49.99h-69a62.024,62.024,0,0,0-121.691,0H131.871a62.092,62.092,0,1,0,1.132,14h55.306a62.008,62.008,0,0,0,123.955,0H379a62.017,62.017,0,1,0,61.976-63.991ZM71.026,486.582a48.027,48.027,0,1,1,48.026-48.027A48.081,48.081,0,0,1,71.026,486.582Zm179.26,0a48.027,48.027,0,1,1,48.026-48.027A48.082,48.082,0,0,1,250.286,486.582Zm190.688,0A48.027,48.027,0,1,1,489,438.555,48.081,48.081,0,0,1,440.974,486.582Z" fill="#ffdb6e" class="color000 svgShape"></path><path d="M456.88,421.024,435.018,441.05l-9.532-10.337a7,7,0,0,0-10.293,9.492l14.262,15.465a7,7,0,0,0,9.875.417l27.008-24.738a7,7,0,0,0-9.458-10.325Z" fill="#ffdb6e" class="color000 svgShape"></path></svg></g></svg>