<svg id="SvgjsSvg1027" width="288" height="288" xmlns="http://www.w3.org/2000/svg" version="1.1" xmlns:xlink="http://www.w3.org/1999/xlink" xmlns:svgjs="http://svgjs.com/svgjs"><defs id="SvgjsDefs1028"></defs><g id="SvgjsG1029"><svg xmlns="http://www.w3.org/2000/svg" viewBox="-49 141 512 512" width="288" height="288"><linearGradient id="a" x1="-47" x2="460.401" y1="398.092" y2="398.092" gradientUnits="userSpaceOnUse"><stop offset="0" stop-color="#ffdb6e" class="stopColorFF884B svgShape"></stop><stop offset=".35" stop-color="#ffdb6e" class="stopColorFF634C svgShape"></stop><stop offset=".655" stop-color="#ffbc5e" class="stopColorFE4A4F svgShape"></stop><stop offset="1" stop-color="#ffbc5e" class="stopColorFE4840 svgShape"></stop></linearGradient><path fill="url(#a)" d="M440.5 492l-83.9.3-50.2-331.1v-.2c-1.7-10.7-10.2-18.4-20.5-18.8-10.3-.4-19.3 6.6-21.8 17l-89.6 390.9L119.7 320l-.1-.4c-2.5-9.8-10.8-16.5-20.5-16.7-9.7-.1-18.2 6.2-21 15.8l-.1.4-42.8 169-62.2-.1c-11 0-20 9-20 20.1 0 11 9 20.1 20 20.1h78c9.1-.6 16.6-6.8 19.3-15.8l.1-.4 27.7-109.6 55.7 233.9.1.3c3.3 12.9 13.3 17.4 20.9 17.4h.2c7.6 0 17.6-4.7 20.8-17.8L281.3 263l37.9 250.4v.2c1.6 10.2 9.7 18 19.6 18.8l.9.1 100.8-.4c11 0 20-9 19.9-20.1.1-11.1-8.9-20-19.9-20z"></path></svg></g></svg>